<svg xmlns="http://www.w3.org/2000/svg" xmlns:xlink="http://www.w3.org/1999/xlink" width="1526" zoomAndPan="magnify" viewBox="0 0 1144.5 119.249998" height="159" preserveAspectRatio="xMidYMid meet" version="1.0"><defs><g><g id="id1"/></g></defs><g fill="rgb(55.288696%, 56.469727%, 73.329163%)" fill-opacity="1"><g transform="translate(229.648872, 90.147641)"><g><path d="M 26.3125 -19.59375 L 21.203125 0 L 10.109375 0 L 15.21875 -19.59375 L 6.078125 -19.59375 L 8.953125 -30.421875 L 18.078125 -30.421875 L 21.46875 -43.484375 L 11.90625 -43.484375 L 14.765625 -54.3125 L 24.34375 -54.3125 L 29.4375 -73.828125 L 40.53125 -73.828125 L 35.4375 -54.3125 L 45.09375 -54.3125 L 50.203125 -73.828125 L 61.296875 -73.828125 L 56.203125 -54.3125 L 65.328125 -54.3125 L 62.453125 -43.484375 L 53.328125 -43.484375 L 49.9375 -30.421875 L 59.5 -30.421875 L 56.640625 -19.59375 L 47.0625 -19.59375 L 41.96875 0 L 30.875 0 L 35.96875 -19.59375 Z M 38.84375 -30.421875 L 42.234375 -43.484375 L 32.578125 -43.484375 L 29.171875 -30.421875 Z M 38.84375 -30.421875 "/></g></g></g><g fill="rgb(55.288696%, 56.469727%, 73.329163%)" fill-opacity="1"><g transform="translate(299.708949, 90.147641)"><g><path d="M 32.578125 -75.171875 C 36.566406 -75.171875 40.46875 -74.585938 44.28125 -73.421875 C 48.101562 -72.253906 50.941406 -71.109375 52.796875 -69.984375 L 55.484375 -68.1875 L 48.671875 -54.765625 C 48.140625 -55.117188 47.394531 -55.578125 46.4375 -56.140625 C 45.488281 -56.710938 43.703125 -57.472656 41.078125 -58.421875 C 38.453125 -59.378906 36.003906 -59.859375 33.734375 -59.859375 C 30.929688 -59.859375 28.769531 -59.257812 27.25 -58.0625 C 25.726562 -56.875 24.96875 -55.269531 24.96875 -53.25 C 24.96875 -52.226562 25.320312 -51.285156 26.03125 -50.421875 C 26.75 -49.554688 27.972656 -48.628906 29.703125 -47.640625 C 31.429688 -46.660156 32.953125 -45.875 34.265625 -45.28125 C 35.578125 -44.6875 37.609375 -43.789062 40.359375 -42.59375 C 45.128906 -40.5625 49.195312 -37.800781 52.5625 -34.3125 C 55.9375 -30.820312 57.625 -26.867188 57.625 -22.453125 C 57.625 -18.222656 56.863281 -14.523438 55.34375 -11.359375 C 53.820312 -8.203125 51.734375 -5.726562 49.078125 -3.9375 C 46.421875 -2.144531 43.484375 -0.816406 40.265625 0.046875 C 37.046875 0.910156 33.554688 1.34375 29.796875 1.34375 C 26.578125 1.34375 23.414062 1.015625 20.3125 0.359375 C 17.207031 -0.296875 14.609375 -1.113281 12.515625 -2.09375 C 10.429688 -3.082031 8.554688 -4.050781 6.890625 -5 C 5.222656 -5.957031 4 -6.765625 3.21875 -7.421875 L 2.0625 -8.40625 L 10.46875 -22.546875 C 11.1875 -21.953125 12.171875 -21.191406 13.421875 -20.265625 C 14.671875 -19.335938 16.890625 -18.097656 20.078125 -16.546875 C 23.273438 -15.003906 26.097656 -14.234375 28.546875 -14.234375 C 35.640625 -14.234375 39.1875 -16.644531 39.1875 -21.46875 C 39.1875 -22.488281 38.929688 -23.429688 38.421875 -24.296875 C 37.921875 -25.160156 37.03125 -26.023438 35.75 -26.890625 C 34.46875 -27.753906 33.332031 -28.4375 32.34375 -28.9375 C 31.363281 -29.445312 29.753906 -30.222656 27.515625 -31.265625 C 25.273438 -32.316406 23.617188 -33.109375 22.546875 -33.640625 C 18.078125 -35.847656 14.617188 -38.609375 12.171875 -41.921875 C 9.722656 -45.234375 8.5 -48.796875 8.5 -52.609375 C 8.5 -59.234375 10.941406 -64.648438 15.828125 -68.859375 C 20.722656 -73.066406 26.304688 -75.171875 32.578125 -75.171875 Z M 32.578125 -75.171875 "/></g></g></g><g fill="rgb(55.288696%, 56.469727%, 73.329163%)" fill-opacity="1"><g transform="translate(355.363316, 90.147641)"><g><path d="M 51.8125 -20.765625 L 18.515625 -20.765625 C 18.515625 -17.535156 19.554688 -15.144531 21.640625 -13.59375 C 23.734375 -12.050781 26.003906 -11.28125 28.453125 -11.28125 C 31.015625 -11.28125 33.039062 -11.617188 34.53125 -12.296875 C 36.03125 -12.984375 37.734375 -14.34375 39.640625 -16.375 L 51.09375 -10.65625 C 46.320312 -2.65625 38.390625 1.34375 27.296875 1.34375 C 20.367188 1.34375 14.429688 -1.023438 9.484375 -5.765625 C 4.535156 -10.515625 2.0625 -16.226562 2.0625 -22.90625 C 2.0625 -29.59375 4.535156 -35.320312 9.484375 -40.09375 C 14.429688 -44.863281 20.367188 -47.25 27.296875 -47.25 C 34.566406 -47.25 40.484375 -45.144531 45.046875 -40.9375 C 49.617188 -36.726562 51.90625 -30.71875 51.90625 -22.90625 C 51.90625 -21.832031 51.875 -21.117188 51.8125 -20.765625 Z M 18.96875 -29.53125 L 36.421875 -29.53125 C 36.066406 -31.914062 35.125 -33.75 33.59375 -35.03125 C 32.070312 -36.3125 30.117188 -36.953125 27.734375 -36.953125 C 25.109375 -36.953125 23.019531 -36.265625 21.46875 -34.890625 C 19.925781 -33.523438 19.09375 -31.738281 18.96875 -29.53125 Z M 18.96875 -29.53125 "/></g></g></g><g fill="rgb(55.288696%, 56.469727%, 73.329163%)" fill-opacity="1"><g transform="translate(404.8438, 90.147641)"><g><path d="M 51.8125 -20.765625 L 18.515625 -20.765625 C 18.515625 -17.535156 19.554688 -15.144531 21.640625 -13.59375 C 23.734375 -12.050781 26.003906 -11.28125 28.453125 -11.28125 C 31.015625 -11.28125 33.039062 -11.617188 34.53125 -12.296875 C 36.03125 -12.984375 37.734375 -14.34375 39.640625 -16.375 L 51.09375 -10.65625 C 46.320312 -2.65625 38.390625 1.34375 27.296875 1.34375 C 20.367188 1.34375 14.429688 -1.023438 9.484375 -5.765625 C 4.535156 -10.515625 2.0625 -16.226562 2.0625 -22.90625 C 2.0625 -29.59375 4.535156 -35.320312 9.484375 -40.09375 C 14.429688 -44.863281 20.367188 -47.25 27.296875 -47.25 C 34.566406 -47.25 40.484375 -45.144531 45.046875 -40.9375 C 49.617188 -36.726562 51.90625 -30.71875 51.90625 -22.90625 C 51.90625 -21.832031 51.875 -21.117188 51.8125 -20.765625 Z M 18.96875 -29.53125 L 36.421875 -29.53125 C 36.066406 -31.914062 35.125 -33.75 33.59375 -35.03125 C 32.070312 -36.3125 30.117188 -36.953125 27.734375 -36.953125 C 25.109375 -36.953125 23.019531 -36.265625 21.46875 -34.890625 C 19.925781 -33.523438 19.09375 -31.738281 18.96875 -29.53125 Z M 18.96875 -29.53125 "/></g></g></g><g fill="rgb(55.288696%, 56.469727%, 73.329163%)" fill-opacity="1"><g transform="translate(454.324285, 90.147641)"><g><path d="M -2.6875 -73.828125 L 17.53125 -73.828125 L 32.9375 -50.203125 L 48.328125 -73.828125 L 68.546875 -73.828125 L 41.34375 -33.109375 L 41.34375 0 L 24.515625 0 L 24.515625 -33.109375 Z M -2.6875 -73.828125 "/></g></g></g><g fill="rgb(55.288696%, 56.469727%, 73.329163%)" fill-opacity="1"><g transform="translate(515.705147, 90.147641)"><g><path d="M 9.703125 -5.453125 C 4.609375 -9.992188 2.0625 -15.8125 2.0625 -22.90625 C 2.0625 -30.007812 4.710938 -35.84375 10.015625 -40.40625 C 15.328125 -44.96875 21.890625 -47.25 29.703125 -47.25 C 37.398438 -47.25 43.890625 -44.953125 49.171875 -40.359375 C 54.453125 -35.765625 57.09375 -29.945312 57.09375 -22.90625 C 57.09375 -15.863281 54.507812 -10.0625 49.34375 -5.5 C 44.1875 -0.9375 37.640625 1.34375 29.703125 1.34375 C 21.472656 1.34375 14.804688 -0.921875 9.703125 -5.453125 Z M 21.96875 -30.6875 C 19.90625 -28.664062 18.875 -26.070312 18.875 -22.90625 C 18.875 -19.75 19.859375 -17.171875 21.828125 -15.171875 C 23.796875 -13.171875 26.394531 -12.171875 29.625 -12.171875 C 32.71875 -12.171875 35.265625 -13.179688 37.265625 -15.203125 C 39.265625 -17.234375 40.265625 -19.800781 40.265625 -22.90625 C 40.265625 -26.070312 39.234375 -28.664062 37.171875 -30.6875 C 35.117188 -32.71875 32.601562 -33.734375 29.625 -33.734375 C 26.582031 -33.734375 24.03125 -32.71875 21.96875 -30.6875 Z M 21.96875 -30.6875 "/></g></g></g><g fill="rgb(55.288696%, 56.469727%, 73.329163%)" fill-opacity="1"><g transform="translate(570.375289, 90.147641)"><g><path d="M 20.3125 -45.90625 L 20.3125 -24.078125 C 20.3125 -19.535156 20.992188 -16.3125 22.359375 -14.40625 C 23.734375 -12.5 26.0625 -11.546875 29.34375 -11.546875 C 32.625 -11.546875 34.953125 -12.5 36.328125 -14.40625 C 37.703125 -16.3125 38.390625 -19.535156 38.390625 -24.078125 L 38.390625 -45.90625 L 54.234375 -45.90625 L 54.234375 -20.21875 C 54.234375 -12.582031 52.25 -7.078125 48.28125 -3.703125 C 44.3125 -0.335938 38 1.34375 29.34375 1.34375 C 20.695312 1.34375 14.390625 -0.335938 10.421875 -3.703125 C 6.453125 -7.078125 4.46875 -12.582031 4.46875 -20.21875 L 4.46875 -45.90625 Z M 20.3125 -45.90625 "/></g></g></g><g fill="rgb(55.288696%, 56.469727%, 73.329163%)" fill-opacity="1"><g transform="translate(624.598021, 90.147641)"><g><path d="M 22.1875 -73.828125 L 22.1875 0 L 5.375 0 L 5.375 -73.828125 Z M 22.1875 -73.828125 "/></g></g></g><g fill="rgb(55.288696%, 56.469727%, 73.329163%)" fill-opacity="1"><g transform="translate(647.682946, 90.147641)"><g><path d="M 5.375 0 L 5.375 -45.90625 L 21.203125 -45.90625 L 21.203125 -41.078125 L 21.390625 -41.078125 C 25.503906 -45.191406 29.890625 -47.25 34.546875 -47.25 C 36.804688 -47.25 39.054688 -46.945312 41.296875 -46.34375 C 43.535156 -45.75 45.679688 -44.828125 47.734375 -43.578125 C 49.796875 -42.328125 51.46875 -40.550781 52.75 -38.25 C 54.03125 -35.957031 54.671875 -33.289062 54.671875 -30.25 L 54.671875 0 L 38.84375 0 L 38.84375 -25.953125 C 38.84375 -28.335938 38.078125 -30.425781 36.546875 -32.21875 C 35.023438 -34.007812 33.046875 -34.90625 30.609375 -34.90625 C 28.222656 -34.90625 26.054688 -33.976562 24.109375 -32.125 C 22.171875 -30.269531 21.203125 -28.210938 21.203125 -25.953125 L 21.203125 0 Z M 5.375 0 "/></g></g></g><g fill="rgb(55.288696%, 56.469727%, 73.329163%)" fill-opacity="1"><g transform="translate(702.353088, 90.147641)"><g><path d="M 42.859375 -73.828125 L 72.65625 0 L 54.578125 0 L 49.125 -14.765625 L 21.03125 -14.765625 L 15.5625 0 L -2.5 0 L 27.296875 -73.828125 Z M 43.40625 -29.53125 L 35.171875 -51 L 34.984375 -51 L 26.75 -29.53125 Z M 43.40625 -29.53125 "/></g></g></g><g fill="rgb(55.288696%, 56.469727%, 73.329163%)" fill-opacity="1"><g transform="translate(768.02881, 90.147641)"><g><path d="M 52.609375 -40.21875 C 56.910156 -35.539062 59.0625 -29.800781 59.0625 -23 C 59.0625 -16.195312 56.910156 -10.4375 52.609375 -5.71875 C 48.316406 -1.007812 42.859375 1.34375 36.234375 1.34375 C 30.148438 1.34375 25.140625 -0.566406 21.203125 -4.390625 L 21.203125 23.265625 L 5.375 23.265625 L 5.375 -45.90625 L 21.03125 -45.90625 L 21.03125 -40.71875 L 21.203125 -40.71875 C 25.140625 -45.070312 30.148438 -47.25 36.234375 -47.25 C 42.859375 -47.25 48.316406 -44.90625 52.609375 -40.21875 Z M 39.140625 -15.203125 C 41.203125 -17.234375 42.234375 -19.828125 42.234375 -22.984375 C 42.234375 -26.148438 41.25 -28.734375 39.28125 -30.734375 C 37.3125 -32.734375 34.71875 -33.734375 31.5 -33.734375 C 28.394531 -33.734375 25.84375 -32.71875 23.84375 -30.6875 C 21.84375 -28.664062 20.84375 -26.101562 20.84375 -23 C 20.84375 -19.832031 21.875 -17.234375 23.9375 -15.203125 C 26 -13.179688 28.519531 -12.171875 31.5 -12.171875 C 34.539062 -12.171875 37.085938 -13.179688 39.140625 -15.203125 Z M 39.140625 -15.203125 "/></g></g></g><g fill="rgb(55.288696%, 56.469727%, 73.329163%)" fill-opacity="1"><g transform="translate(824.667402, 90.147641)"><g><path d="M 5.375 0 L 5.375 -45.90625 L 21.203125 -45.90625 L 21.203125 -39.28125 L 21.390625 -39.28125 C 21.503906 -39.519531 21.695312 -39.816406 21.96875 -40.171875 C 22.238281 -40.535156 22.820312 -41.164062 23.71875 -42.0625 C 24.613281 -42.957031 25.566406 -43.757812 26.578125 -44.46875 C 27.585938 -45.1875 28.898438 -45.828125 30.515625 -46.390625 C 32.128906 -46.960938 33.769531 -47.25 35.4375 -47.25 C 37.164062 -47.25 38.863281 -47.007812 40.53125 -46.53125 C 42.207031 -46.050781 43.429688 -45.570312 44.203125 -45.09375 L 45.453125 -44.390625 L 38.84375 -30.96875 C 36.875 -32.632812 34.128906 -33.46875 30.609375 -33.46875 C 28.691406 -33.46875 27.046875 -33.050781 25.671875 -32.21875 C 24.304688 -31.382812 23.335938 -30.367188 22.765625 -29.171875 C 22.203125 -27.972656 21.800781 -26.957031 21.5625 -26.125 C 21.320312 -25.289062 21.203125 -24.632812 21.203125 -24.15625 L 21.203125 0 Z M 5.375 0 "/></g></g></g><g fill="rgb(55.288696%, 56.469727%, 73.329163%)" fill-opacity="1"><g transform="translate(864.752865, 90.147641)"><g><path d="M 6.890625 -71.484375 C 8.742188 -73.335938 10.953125 -74.265625 13.515625 -74.265625 C 16.078125 -74.265625 18.28125 -73.335938 20.125 -71.484375 C 21.976562 -69.640625 22.90625 -67.4375 22.90625 -64.875 C 22.90625 -62.3125 21.976562 -60.101562 20.125 -58.25 C 18.28125 -56.40625 16.078125 -55.484375 13.515625 -55.484375 C 10.953125 -55.484375 8.742188 -56.40625 6.890625 -58.25 C 5.035156 -60.101562 4.109375 -62.3125 4.109375 -64.875 C 4.109375 -67.4375 5.035156 -69.640625 6.890625 -71.484375 Z M 5.375 -45.90625 L 5.375 0 L 21.203125 0 L 21.203125 -45.90625 Z M 5.375 -45.90625 "/></g></g></g><g fill="rgb(55.288696%, 56.469727%, 73.329163%)" fill-opacity="1"><g transform="translate(887.300907, 90.147641)"><g><path d="M 5.375 0 L 5.375 -76.953125 L 21.203125 -76.953125 L 21.203125 0 Z M 5.375 0 "/></g></g></g><g fill="rgb(55.288696%, 56.469727%, 73.329163%)" fill-opacity="1"><g transform="translate(909.401585, 90.147641)"><g><path d="M 15.5625 -19.15625 C 18.425781 -19.15625 20.859375 -18.15625 22.859375 -16.15625 C 24.859375 -14.15625 25.859375 -11.722656 25.859375 -8.859375 C 25.859375 -6.054688 24.859375 -3.65625 22.859375 -1.65625 C 20.859375 0.34375 18.425781 1.34375 15.5625 1.34375 C 12.757812 1.34375 10.359375 0.34375 8.359375 -1.65625 C 6.367188 -3.65625 5.375 -6.054688 5.375 -8.859375 C 5.375 -11.722656 6.367188 -14.15625 8.359375 -16.15625 C 10.359375 -18.15625 12.757812 -19.15625 15.5625 -19.15625 Z M 15.5625 -19.15625 "/></g></g></g></svg>