<svg xmlns="http://www.w3.org/2000/svg" xmlns:xlink="http://www.w3.org/1999/xlink" width="560" zoomAndPan="magnify" viewBox="0 0 420 419.999985" height="560" preserveAspectRatio="xMidYMid meet" version="1.0"><defs><clipPath id="id1"><path d="M 217 13.253906 L 289 13.253906 L 289 98 L 217 98 Z M 217 13.253906 " clip-rule="nonzero"/></clipPath><clipPath id="id2"><path d="M 131 13.253906 L 203 13.253906 L 203 98 L 131 98 Z M 131 13.253906 " clip-rule="nonzero"/></clipPath><clipPath id="id3"><path d="M 112 61 L 308 61 L 308 209.753906 L 112 209.753906 Z M 112 61 " clip-rule="nonzero"/></clipPath></defs><path fill="rgb(94.509888%, 29.019165%, 10.978699%)" d="M 272.316406 18.632812 C 272.316406 18.632812 239.855469 34.757812 222.257812 73.617188 L 281.835938 92.351562 C 289.683594 50.421875 272.316406 18.632812 272.316406 18.632812 " fill-opacity="1" fill-rule="nonzero"/><g clip-path="url(#id1)"><path fill="rgb(6.269836%, 5.879211%, 5.099487%)" d="M 228.890625 70.75 L 278.042969 86.203125 C 282.015625 57.640625 274.152344 34.601562 270.21875 25.316406 C 261.664062 30.699219 241.976562 45.148438 228.890625 70.75 Z M 281.835938 97.078125 C 281.359375 97.078125 280.878906 97.003906 280.414062 96.859375 L 220.835938 78.125 C 219.546875 77.71875 218.492188 76.78125 217.9375 75.546875 C 217.386719 74.3125 217.390625 72.902344 217.945312 71.667969 C 236.03125 31.734375 268.824219 15.089844 270.210938 14.398438 C 272.488281 13.269531 275.253906 14.136719 276.472656 16.367188 C 277.210938 17.726562 294.554688 50.132812 286.488281 93.21875 C 286.238281 94.550781 285.433594 95.707031 284.269531 96.402344 C 283.527344 96.847656 282.683594 97.078125 281.835938 97.078125 " fill-opacity="1" fill-rule="nonzero"/></g><path fill="rgb(6.269836%, 5.879211%, 5.099487%)" d="M 264.292969 44.128906 C 264.292969 44.128906 248.957031 51.746094 240.648438 70.101562 L 268.789062 78.953125 C 272.496094 59.148438 264.292969 44.128906 264.292969 44.128906 " fill-opacity="1" fill-rule="nonzero"/><path fill="rgb(94.509888%, 29.019165%, 10.978699%)" d="M 147.671875 18.632812 C 147.671875 18.632812 180.136719 34.757812 197.734375 73.617188 L 138.15625 92.351562 C 130.304688 50.421875 147.671875 18.632812 147.671875 18.632812 " fill-opacity="1" fill-rule="nonzero"/><g clip-path="url(#id2)"><path fill="rgb(6.269836%, 5.879211%, 5.099487%)" d="M 149.78125 25.324219 C 145.855469 34.636719 138 57.738281 141.945312 86.203125 L 191.101562 70.75 C 178.019531 45.160156 158.339844 30.714844 149.78125 25.324219 Z M 138.15625 97.078125 C 137.304688 97.078125 136.464844 96.847656 135.71875 96.402344 C 134.558594 95.707031 133.75 94.550781 133.503906 93.21875 C 125.4375 50.132812 142.777344 17.726562 143.519531 16.367188 C 144.738281 14.136719 147.503906 13.269531 149.78125 14.398438 C 151.167969 15.089844 183.960938 31.734375 202.042969 71.667969 C 202.601562 72.902344 202.605469 74.3125 202.054688 75.546875 C 201.5 76.78125 200.445312 77.71875 199.15625 78.125 L 139.574219 96.859375 C 139.113281 97.003906 138.632812 97.078125 138.15625 97.078125 " fill-opacity="1" fill-rule="nonzero"/></g><path fill="rgb(6.269836%, 5.879211%, 5.099487%)" d="M 155.699219 44.128906 C 155.699219 44.128906 171.03125 51.746094 179.34375 70.101562 L 151.203125 78.953125 C 147.496094 59.148438 155.699219 44.128906 155.699219 44.128906 " fill-opacity="1" fill-rule="nonzero"/><path fill="rgb(94.509888%, 29.019165%, 10.978699%)" d="M 276.785156 85.226562 C 267.726562 73.207031 253.417969 66.210938 238.289062 66.210938 L 181.703125 66.210938 C 166.40625 66.210938 152.03125 73.417969 142.917969 85.609375 C 132.699219 99.28125 121.222656 120.511719 116.761719 150.351562 C 116.761719 150.351562 167.121094 153.609375 209.996094 205.03125 C 252.871094 153.609375 303.226562 150.351562 303.226562 150.351562 C 298.726562 120.230469 287.074219 98.882812 276.785156 85.226562 " fill-opacity="1" fill-rule="nonzero"/><path fill="rgb(81.568909%, 25.489807%, 12.939453%)" d="M 171.308594 87.511719 C 180.425781 74.125 194.796875 66.210938 210.09375 66.210938 L 181.703125 66.210938 C 166.40625 66.210938 152.03125 73.417969 142.917969 85.609375 C 132.699219 99.28125 121.222656 120.511719 116.761719 150.351562 C 116.761719 150.351562 128.421875 151.109375 145.296875 157.621094 C 149.847656 125.371094 161.195312 102.371094 171.308594 87.511719 " fill-opacity="1" fill-rule="nonzero"/><path fill="rgb(81.568909%, 25.489807%, 12.939453%)" d="M 149.007812 159.109375 C 166.710938 166.523438 189.230469 180.128906 209.996094 205.03125 C 212.667969 201.824219 215.367188 198.808594 218.082031 195.964844 C 188.304688 167.945312 159.222656 160.824219 149.007812 159.109375 " fill-opacity="1" fill-rule="nonzero"/><path fill="rgb(6.269836%, 5.879211%, 5.099487%)" d="M 215.050781 187.527344 C 213.746094 187.527344 212.6875 186.46875 212.6875 185.164062 C 212.6875 161.617188 215.9375 142.300781 222.351562 127.753906 C 228.210938 114.460938 236.730469 105.445312 246.996094 101.6875 C 263.355469 95.691406 282.675781 103.367188 298.671875 122.210938 C 299.519531 123.207031 299.394531 124.699219 298.398438 125.542969 C 297.402344 126.386719 295.910156 126.261719 295.0625 125.269531 C 280.40625 107.996094 263.046875 100.839844 248.625 106.125 C 228.792969 113.390625 217.417969 142.199219 217.417969 185.164062 C 217.417969 186.46875 216.359375 187.527344 215.050781 187.527344 " fill-opacity="1" fill-rule="nonzero"/><path fill="rgb(100%, 100%, 100%)" d="M 205.230469 185.164062 L 205.230469 199.230469 C 163.554688 153.371094 117.058594 150.351562 117.058594 150.351562 C 118.519531 140.5625 120.742188 131.707031 123.421875 123.734375 C 156.890625 84.3125 205.230469 95.183594 205.230469 185.164062 " fill-opacity="1" fill-rule="nonzero"/><path fill="rgb(6.269836%, 5.879211%, 5.099487%)" d="M 119.78125 148.269531 C 124.167969 148.847656 133.824219 150.554688 146.367188 155.390625 C 160.988281 161.023438 182.269531 172.101562 202.867188 193.261719 L 202.867188 185.164062 C 202.867188 142.199219 191.492188 113.390625 171.660156 106.125 C 157.339844 100.875 140.117188 107.898438 125.519531 124.917969 C 123.035156 132.386719 121.109375 140.230469 119.78125 148.269531 Z M 205.230469 201.59375 C 204.578125 201.59375 203.9375 201.320312 203.480469 200.816406 C 182.332031 177.542969 159.929688 165.707031 144.859375 159.875 C 128.511719 153.546875 117.015625 152.71875 116.902344 152.710938 C 116.242188 152.667969 115.628906 152.347656 115.214844 151.835938 C 114.800781 151.320312 114.621094 150.65625 114.71875 150.003906 C 116.109375 140.683594 118.285156 131.589844 121.179688 122.980469 C 121.273438 122.695312 121.425781 122.433594 121.617188 122.203125 C 137.613281 103.363281 156.929688 95.691406 173.292969 101.6875 C 183.554688 105.449219 192.074219 114.460938 197.933594 127.753906 C 204.347656 142.304688 207.597656 161.617188 207.597656 185.164062 L 207.597656 199.230469 C 207.597656 200.207031 206.996094 201.082031 206.085938 201.433594 C 205.808594 201.542969 205.519531 201.59375 205.230469 201.59375 " fill-opacity="1" fill-rule="nonzero"/><path fill="rgb(100%, 100%, 100%)" d="M 215.050781 185.164062 L 215.050781 199.230469 C 256.730469 153.371094 303.226562 150.351562 303.226562 150.351562 C 301.765625 140.5625 299.542969 131.707031 296.863281 123.734375 C 263.394531 84.3125 215.050781 95.183594 215.050781 185.164062 " fill-opacity="1" fill-rule="nonzero"/><path fill="rgb(6.269836%, 5.879211%, 5.099487%)" d="M 258.355469 104.417969 C 255.011719 104.417969 251.75 104.976562 248.625 106.125 C 228.792969 113.390625 217.417969 142.199219 217.417969 185.164062 L 217.417969 193.261719 C 238.015625 172.101562 259.292969 161.023438 273.917969 155.390625 C 286.460938 150.554688 296.117188 148.847656 300.503906 148.269531 C 299.175781 140.230469 297.25 132.386719 294.765625 124.917969 C 283.355469 111.613281 270.335938 104.417969 258.355469 104.417969 Z M 215.050781 201.59375 C 214.765625 201.59375 214.476562 201.542969 214.199219 201.433594 C 213.289062 201.082031 212.6875 200.207031 212.6875 199.230469 L 212.6875 185.164062 C 212.6875 161.617188 215.9375 142.304688 222.351562 127.753906 C 228.210938 114.460938 236.730469 105.449219 246.996094 101.6875 C 263.351562 95.691406 282.671875 103.363281 298.664062 122.203125 C 298.859375 122.433594 299.007812 122.695312 299.105469 122.980469 C 302 131.589844 304.175781 140.683594 305.566406 150.003906 C 305.664062 150.65625 305.484375 151.320312 305.070312 151.835938 C 304.652344 152.351562 304.039062 152.667969 303.382812 152.710938 C 303.269531 152.71875 291.773438 153.546875 275.421875 159.875 C 260.355469 165.707031 237.953125 177.542969 216.804688 200.816406 C 216.347656 201.320312 215.707031 201.59375 215.050781 201.59375 " fill-opacity="1" fill-rule="nonzero"/><path fill="rgb(6.269836%, 5.879211%, 5.099487%)" d="M 205.238281 187.527344 C 203.933594 187.527344 202.875 186.46875 202.875 185.164062 C 202.875 142.199219 191.5 113.390625 171.667969 106.125 C 157.246094 100.839844 139.886719 107.996094 125.226562 125.269531 C 124.382812 126.261719 122.890625 126.386719 121.894531 125.542969 C 120.894531 124.699219 120.773438 123.207031 121.617188 122.210938 C 137.617188 103.367188 156.933594 95.695312 173.296875 101.6875 C 183.5625 105.445312 192.082031 114.460938 197.941406 127.753906 C 204.355469 142.300781 207.605469 161.617188 207.605469 185.164062 C 207.605469 186.46875 206.546875 187.527344 205.238281 187.527344 " fill-opacity="1" fill-rule="nonzero"/><path fill="rgb(6.269836%, 5.879211%, 5.099487%)" d="M 252.578125 143.609375 C 252.578125 147.65625 249.296875 150.9375 245.242188 150.9375 C 241.191406 150.9375 237.910156 147.65625 237.910156 143.609375 C 237.910156 139.5625 241.191406 136.28125 245.242188 136.28125 C 249.296875 136.28125 252.578125 139.5625 252.578125 143.609375 " fill-opacity="1" fill-rule="nonzero"/><path fill="rgb(6.269836%, 5.879211%, 5.099487%)" d="M 182.082031 143.609375 C 182.082031 147.65625 178.800781 150.9375 174.746094 150.9375 C 170.695312 150.9375 167.410156 147.65625 167.410156 143.609375 C 167.410156 139.5625 170.695312 136.28125 174.746094 136.28125 C 178.800781 136.28125 182.082031 139.5625 182.082031 143.609375 " fill-opacity="1" fill-rule="nonzero"/><g clip-path="url(#id3)"><path fill="rgb(6.269836%, 5.879211%, 5.099487%)" d="M 122.230469 146.289062 C 127.75 147.1875 137.308594 149.28125 149.074219 154.027344 C 165.058594 160.476562 188.238281 173.242188 209.996094 197.777344 C 231.75 173.242188 254.933594 160.476562 270.917969 154.027344 C 282.683594 149.28125 292.242188 147.1875 297.761719 146.289062 C 292.796875 118.851562 281.691406 99.597656 273.003906 88.070312 C 264.921875 77.339844 251.945312 70.9375 238.289062 70.9375 L 181.703125 70.9375 C 167.984375 70.9375 154.898438 77.480469 146.707031 88.4375 C 138.128906 99.914062 127.15625 119.066406 122.230469 146.289062 Z M 209.996094 209.753906 C 208.589844 209.753906 207.257812 209.132812 206.359375 208.054688 C 184.972656 182.40625 161.691406 169.371094 145.925781 162.953125 C 128.800781 155.980469 116.570312 155.078125 116.449219 155.066406 C 115.132812 154.980469 113.90625 154.34375 113.078125 153.3125 C 112.25 152.289062 111.886719 150.960938 112.082031 149.65625 C 116.820312 117.949219 129.402344 95.789062 139.125 82.785156 C 149.09375 69.445312 165.011719 61.484375 181.703125 61.484375 L 238.289062 61.484375 C 254.902344 61.484375 270.703125 69.296875 280.566406 82.386719 C 290.402344 95.441406 303.136719 117.710938 307.90625 149.65625 C 308.105469 150.964844 307.742188 152.292969 306.910156 153.320312 C 306.078125 154.347656 304.855469 154.984375 303.53125 155.070312 C 303.417969 155.078125 291.1875 155.980469 274.066406 162.953125 C 258.300781 169.371094 235.019531 182.40625 213.632812 208.054688 C 212.734375 209.132812 211.398438 209.753906 209.996094 209.753906 " fill-opacity="1" fill-rule="nonzero"/></g><path fill="rgb(6.269836%, 5.879211%, 5.099487%)" d="M 200.074219 193.554688 L 205.125 202.234375 C 207.292969 205.960938 212.714844 205.960938 214.882812 202.234375 L 219.933594 193.554688 C 222.101562 189.828125 219.390625 185.164062 215.050781 185.164062 L 204.957031 185.164062 C 200.617188 185.164062 197.90625 189.828125 200.074219 193.554688 " fill-opacity="1" fill-rule="nonzero"/><path fill="rgb(81.568909%, 25.489807%, 12.939453%)" d="M 58.5 296.515625 L 108 296.515625 C 108.542969 296.515625 109.078125 296.566406 109.609375 296.671875 C 110.140625 296.777344 110.65625 296.933594 111.15625 297.140625 C 111.65625 297.347656 112.132812 297.605469 112.582031 297.90625 C 113.035156 298.207031 113.449219 298.546875 113.832031 298.929688 C 114.214844 299.3125 114.558594 299.730469 114.859375 300.179688 C 115.160156 300.632812 115.414062 301.105469 115.621094 301.605469 C 115.828125 302.109375 115.984375 302.625 116.089844 303.15625 C 116.195312 303.6875 116.25 304.222656 116.25 304.765625 C 116.25 305.304688 116.195312 305.84375 116.089844 306.375 C 115.984375 306.90625 115.828125 307.421875 115.621094 307.921875 C 115.414062 308.421875 115.160156 308.898438 114.859375 309.347656 C 114.558594 309.796875 114.214844 310.214844 113.832031 310.597656 C 113.449219 310.980469 113.035156 311.324219 112.582031 311.625 C 112.132812 311.925781 111.65625 312.179688 111.15625 312.386719 C 110.65625 312.59375 110.140625 312.75 109.609375 312.855469 C 109.078125 312.960938 108.542969 313.015625 108 313.015625 L 58.5 313.015625 C 57.957031 313.015625 57.421875 312.960938 56.890625 312.855469 C 56.359375 312.75 55.84375 312.59375 55.34375 312.386719 C 54.84375 312.179688 54.367188 311.925781 53.917969 311.625 C 53.464844 311.324219 53.050781 310.980469 52.667969 310.597656 C 52.285156 310.214844 51.941406 309.796875 51.640625 309.347656 C 51.339844 308.898438 51.085938 308.421875 50.878906 307.921875 C 50.671875 307.421875 50.515625 306.90625 50.410156 306.375 C 50.304688 305.84375 50.25 305.304688 50.25 304.765625 C 50.25 304.222656 50.304688 303.6875 50.410156 303.15625 C 50.515625 302.625 50.671875 302.109375 50.878906 301.605469 C 51.085938 301.105469 51.339844 300.632812 51.640625 300.179688 C 51.941406 299.730469 52.285156 299.3125 52.667969 298.929688 C 53.050781 298.546875 53.464844 298.207031 53.917969 297.90625 C 54.367188 297.605469 54.84375 297.347656 55.34375 297.140625 C 55.84375 296.933594 56.359375 296.777344 56.890625 296.671875 C 57.421875 296.566406 57.957031 296.515625 58.5 296.515625 Z M 141 296.515625 L 190.5 296.515625 C 191.042969 296.515625 191.578125 296.566406 192.109375 296.671875 C 192.640625 296.777344 193.15625 296.933594 193.65625 297.140625 C 194.15625 297.347656 194.632812 297.605469 195.082031 297.90625 C 195.535156 298.207031 195.949219 298.546875 196.332031 298.929688 C 196.714844 299.3125 197.058594 299.730469 197.359375 300.179688 C 197.660156 300.632812 197.914062 301.105469 198.121094 301.605469 C 198.328125 302.109375 198.484375 302.625 198.589844 303.15625 C 198.695312 303.6875 198.75 304.222656 198.75 304.765625 C 198.75 305.304688 198.695312 305.84375 198.589844 306.375 C 198.484375 306.90625 198.328125 307.421875 198.121094 307.921875 C 197.914062 308.421875 197.660156 308.898438 197.359375 309.347656 C 197.058594 309.796875 196.714844 310.214844 196.332031 310.597656 C 195.949219 310.980469 195.535156 311.324219 195.082031 311.625 C 194.632812 311.925781 194.15625 312.179688 193.65625 312.386719 C 193.15625 312.59375 192.640625 312.75 192.109375 312.855469 C 191.578125 312.960938 191.042969 313.015625 190.5 313.015625 L 141 313.015625 C 140.457031 313.015625 139.921875 312.960938 139.390625 312.855469 C 138.859375 312.75 138.34375 312.59375 137.84375 312.386719 C 137.34375 312.179688 136.867188 311.925781 136.417969 311.625 C 135.964844 311.324219 135.550781 310.980469 135.167969 310.597656 C 134.785156 310.214844 134.441406 309.796875 134.140625 309.347656 C 133.839844 308.898438 133.585938 308.421875 133.378906 307.921875 C 133.171875 307.421875 133.015625 306.90625 132.910156 306.375 C 132.804688 305.84375 132.75 305.304688 132.75 304.765625 C 132.75 304.222656 132.804688 303.6875 132.910156 303.15625 C 133.015625 302.625 133.171875 302.109375 133.378906 301.605469 C 133.585938 301.105469 133.839844 300.632812 134.140625 300.179688 C 134.441406 299.730469 134.785156 299.3125 135.167969 298.929688 C 135.550781 298.546875 135.964844 298.207031 136.417969 297.90625 C 136.867188 297.605469 137.34375 297.347656 137.84375 297.140625 C 138.34375 296.933594 138.859375 296.777344 139.390625 296.671875 C 139.921875 296.566406 140.457031 296.515625 141 296.515625 Z M 223.5 296.515625 L 273 296.515625 C 273.542969 296.515625 274.078125 296.566406 274.609375 296.671875 C 275.140625 296.777344 275.65625 296.933594 276.15625 297.140625 C 276.65625 297.347656 277.132812 297.605469 277.582031 297.90625 C 278.035156 298.207031 278.449219 298.546875 278.832031 298.929688 C 279.214844 299.3125 279.558594 299.730469 279.859375 300.179688 C 280.160156 300.632812 280.414062 301.105469 280.621094 301.605469 C 280.828125 302.109375 280.984375 302.625 281.089844 303.15625 C 281.195312 303.6875 281.25 304.222656 281.25 304.765625 C 281.25 305.304688 281.195312 305.84375 281.089844 306.375 C 280.984375 306.90625 280.828125 307.421875 280.621094 307.921875 C 280.414062 308.421875 280.160156 308.898438 279.859375 309.347656 C 279.558594 309.796875 279.214844 310.214844 278.832031 310.597656 C 278.449219 310.980469 278.035156 311.324219 277.582031 311.625 C 277.132812 311.925781 276.65625 312.179688 276.15625 312.386719 C 275.65625 312.59375 275.140625 312.75 274.609375 312.855469 C 274.078125 312.960938 273.542969 313.015625 273 313.015625 L 223.5 313.015625 C 222.957031 313.015625 222.421875 312.960938 221.890625 312.855469 C 221.359375 312.75 220.84375 312.59375 220.34375 312.386719 C 219.84375 312.179688 219.367188 311.925781 218.917969 311.625 C 218.464844 311.324219 218.050781 310.980469 217.667969 310.597656 C 217.285156 310.214844 216.941406 309.796875 216.640625 309.347656 C 216.339844 308.898438 216.085938 308.421875 215.878906 307.921875 C 215.671875 307.421875 215.515625 306.90625 215.410156 306.375 C 215.304688 305.84375 215.25 305.304688 215.25 304.765625 C 215.25 304.222656 215.304688 303.6875 215.410156 303.15625 C 215.515625 302.625 215.671875 302.109375 215.878906 301.605469 C 216.085938 301.105469 216.339844 300.632812 216.640625 300.179688 C 216.941406 299.730469 217.285156 299.3125 217.667969 298.929688 C 218.050781 298.546875 218.464844 298.207031 218.917969 297.90625 C 219.367188 297.605469 219.84375 297.347656 220.34375 297.140625 C 220.84375 296.933594 221.359375 296.777344 221.890625 296.671875 C 222.421875 296.566406 222.957031 296.515625 223.5 296.515625 Z M 306 296.515625 L 355.5 296.515625 C 356.042969 296.515625 356.578125 296.566406 357.109375 296.671875 C 357.640625 296.777344 358.15625 296.933594 358.65625 297.140625 C 359.15625 297.347656 359.632812 297.605469 360.082031 297.90625 C 360.535156 298.207031 360.949219 298.546875 361.332031 298.929688 C 361.714844 299.3125 362.058594 299.730469 362.359375 300.179688 C 362.660156 300.632812 362.914062 301.105469 363.121094 301.605469 C 363.328125 302.109375 363.484375 302.625 363.589844 303.15625 C 363.695312 303.6875 363.75 304.222656 363.75 304.765625 C 363.75 305.304688 363.695312 305.84375 363.589844 306.375 C 363.484375 306.90625 363.328125 307.421875 363.121094 307.921875 C 362.914062 308.421875 362.660156 308.898438 362.359375 309.347656 C 362.058594 309.796875 361.714844 310.214844 361.332031 310.597656 C 360.949219 310.980469 360.535156 311.324219 360.082031 311.625 C 359.632812 311.925781 359.15625 312.179688 358.65625 312.386719 C 358.15625 312.59375 357.640625 312.75 357.109375 312.855469 C 356.578125 312.960938 356.042969 313.015625 355.5 313.015625 L 306 313.015625 C 305.457031 313.015625 304.921875 312.960938 304.390625 312.855469 C 303.859375 312.75 303.34375 312.59375 302.84375 312.386719 C 302.34375 312.179688 301.867188 311.925781 301.417969 311.625 C 300.964844 311.324219 300.550781 310.980469 300.167969 310.597656 C 299.785156 310.214844 299.441406 309.796875 299.140625 309.347656 C 298.839844 308.898438 298.585938 308.421875 298.378906 307.921875 C 298.171875 307.421875 298.015625 306.90625 297.910156 306.375 C 297.804688 305.84375 297.75 305.304688 297.75 304.765625 C 297.75 304.222656 297.804688 303.6875 297.910156 303.15625 C 298.015625 302.625 298.171875 302.109375 298.378906 301.605469 C 298.585938 301.105469 298.839844 300.632812 299.140625 300.179688 C 299.441406 299.730469 299.785156 299.3125 300.167969 298.929688 C 300.550781 298.546875 300.964844 298.207031 301.417969 297.90625 C 301.867188 297.605469 302.34375 297.347656 302.84375 297.140625 C 303.34375 296.933594 303.859375 296.777344 304.390625 296.671875 C 304.921875 296.566406 305.457031 296.515625 306 296.515625 Z M 306 296.515625 " fill-opacity="1" fill-rule="nonzero"/><path fill="rgb(81.568909%, 25.489807%, 12.939453%)" d="M 50.25 271.765625 C 50.792969 271.765625 51.328125 271.816406 51.859375 271.921875 C 52.390625 272.027344 52.90625 272.183594 53.40625 272.390625 C 53.90625 272.597656 54.382812 272.855469 54.832031 273.15625 C 55.285156 273.457031 55.699219 273.796875 56.082031 274.179688 C 56.464844 274.5625 56.808594 274.980469 57.109375 275.429688 C 57.410156 275.882812 57.664062 276.355469 57.871094 276.855469 C 58.078125 277.359375 58.234375 277.875 58.339844 278.40625 C 58.445312 278.9375 58.5 279.472656 58.5 280.015625 L 58.5 329.515625 C 58.5 330.054688 58.445312 330.59375 58.339844 331.125 C 58.234375 331.65625 58.078125 332.171875 57.871094 332.671875 C 57.664062 333.171875 57.410156 333.648438 57.109375 334.097656 C 56.808594 334.546875 56.464844 334.964844 56.082031 335.347656 C 55.699219 335.730469 55.285156 336.074219 54.832031 336.375 C 54.382812 336.675781 53.90625 336.929688 53.40625 337.136719 C 52.90625 337.34375 52.390625 337.5 51.859375 337.605469 C 51.328125 337.710938 50.792969 337.765625 50.25 337.765625 C 49.707031 337.765625 49.171875 337.710938 48.640625 337.605469 C 48.109375 337.5 47.59375 337.34375 47.09375 337.136719 C 46.59375 336.929688 46.117188 336.675781 45.667969 336.375 C 45.214844 336.074219 44.800781 335.730469 44.417969 335.347656 C 44.035156 334.964844 43.691406 334.546875 43.390625 334.097656 C 43.089844 333.648438 42.835938 333.171875 42.628906 332.671875 C 42.421875 332.171875 42.265625 331.65625 42.160156 331.125 C 42.054688 330.59375 42 330.054688 42 329.515625 L 42 280.015625 C 42 279.472656 42.054688 278.9375 42.160156 278.40625 C 42.265625 277.875 42.421875 277.359375 42.628906 276.855469 C 42.835938 276.355469 43.089844 275.882812 43.390625 275.429688 C 43.691406 274.980469 44.035156 274.5625 44.417969 274.179688 C 44.800781 273.796875 45.214844 273.457031 45.667969 273.15625 C 46.117188 272.855469 46.59375 272.597656 47.09375 272.390625 C 47.59375 272.183594 48.109375 272.027344 48.640625 271.921875 C 49.171875 271.816406 49.707031 271.765625 50.25 271.765625 Z M 50.25 271.765625 " fill-opacity="1" fill-rule="nonzero"/><path fill="rgb(81.568909%, 25.489807%, 12.939453%)" d="M 369.75 271.765625 C 370.292969 271.765625 370.828125 271.816406 371.359375 271.921875 C 371.890625 272.027344 372.40625 272.183594 372.90625 272.390625 C 373.40625 272.597656 373.882812 272.855469 374.332031 273.15625 C 374.785156 273.457031 375.199219 273.796875 375.582031 274.179688 C 375.964844 274.5625 376.308594 274.980469 376.609375 275.429688 C 376.910156 275.882812 377.164062 276.355469 377.371094 276.855469 C 377.578125 277.359375 377.734375 277.875 377.839844 278.40625 C 377.945312 278.9375 378 279.472656 378 280.015625 L 378 329.515625 C 378 330.054688 377.945312 330.59375 377.839844 331.125 C 377.734375 331.65625 377.578125 332.171875 377.371094 332.671875 C 377.164062 333.171875 376.910156 333.648438 376.609375 334.097656 C 376.308594 334.546875 375.964844 334.964844 375.582031 335.347656 C 375.199219 335.730469 374.785156 336.074219 374.332031 336.375 C 373.882812 336.675781 373.40625 336.929688 372.90625 337.136719 C 372.40625 337.34375 371.890625 337.5 371.359375 337.605469 C 370.828125 337.710938 370.292969 337.765625 369.75 337.765625 C 369.207031 337.765625 368.671875 337.710938 368.140625 337.605469 C 367.609375 337.5 367.09375 337.34375 366.59375 337.136719 C 366.09375 336.929688 365.617188 336.675781 365.167969 336.375 C 364.714844 336.074219 364.300781 335.730469 363.917969 335.347656 C 363.535156 334.964844 363.191406 334.546875 362.890625 334.097656 C 362.589844 333.648438 362.335938 333.171875 362.128906 332.671875 C 361.921875 332.171875 361.765625 331.65625 361.660156 331.125 C 361.554688 330.59375 361.5 330.054688 361.5 329.515625 L 361.5 280.015625 C 361.5 279.472656 361.554688 278.9375 361.660156 278.40625 C 361.765625 277.875 361.921875 277.359375 362.128906 276.855469 C 362.335938 276.355469 362.589844 275.882812 362.890625 275.429688 C 363.191406 274.980469 363.535156 274.5625 363.917969 274.179688 C 364.300781 273.796875 364.714844 273.457031 365.167969 273.15625 C 365.617188 272.855469 366.09375 272.597656 366.59375 272.390625 C 367.09375 272.183594 367.609375 272.027344 368.140625 271.921875 C 368.671875 271.816406 369.207031 271.765625 369.75 271.765625 Z M 369.75 271.765625 " fill-opacity="1" fill-rule="nonzero"/><path fill="rgb(94.509888%, 29.019165%, 10.978699%)" d="M 58.5 369.75 L 108 369.75 C 108.542969 369.75 109.078125 369.804688 109.609375 369.910156 C 110.140625 370.015625 110.65625 370.171875 111.15625 370.378906 C 111.65625 370.585938 112.132812 370.839844 112.582031 371.140625 C 113.035156 371.441406 113.449219 371.785156 113.832031 372.167969 C 114.214844 372.550781 114.558594 372.964844 114.859375 373.417969 C 115.160156 373.867188 115.414062 374.34375 115.621094 374.84375 C 115.828125 375.34375 115.984375 375.859375 116.089844 376.390625 C 116.195312 376.921875 116.25 377.457031 116.25 378 C 116.25 378.542969 116.195312 379.078125 116.089844 379.609375 C 115.984375 380.140625 115.828125 380.65625 115.621094 381.15625 C 115.414062 381.65625 115.160156 382.132812 114.859375 382.582031 C 114.558594 383.035156 114.214844 383.449219 113.832031 383.832031 C 113.449219 384.214844 113.035156 384.558594 112.582031 384.859375 C 112.132812 385.160156 111.65625 385.414062 111.15625 385.621094 C 110.65625 385.828125 110.140625 385.984375 109.609375 386.089844 C 109.078125 386.195312 108.542969 386.25 108 386.25 L 58.5 386.25 C 57.957031 386.25 57.421875 386.195312 56.890625 386.089844 C 56.359375 385.984375 55.84375 385.828125 55.34375 385.621094 C 54.84375 385.414062 54.367188 385.160156 53.917969 384.859375 C 53.464844 384.558594 53.050781 384.214844 52.667969 383.832031 C 52.285156 383.449219 51.941406 383.035156 51.640625 382.582031 C 51.339844 382.132812 51.085938 381.65625 50.878906 381.15625 C 50.671875 380.65625 50.515625 380.140625 50.410156 379.609375 C 50.304688 379.078125 50.25 378.542969 50.25 378 C 50.25 377.457031 50.304688 376.921875 50.410156 376.390625 C 50.515625 375.859375 50.671875 375.34375 50.878906 374.84375 C 51.085938 374.34375 51.339844 373.867188 51.640625 373.417969 C 51.941406 372.964844 52.285156 372.550781 52.667969 372.167969 C 53.050781 371.785156 53.464844 371.441406 53.917969 371.140625 C 54.367188 370.839844 54.84375 370.585938 55.34375 370.378906 C 55.84375 370.171875 56.359375 370.015625 56.890625 369.910156 C 57.421875 369.804688 57.957031 369.75 58.5 369.75 Z M 141 369.75 L 190.5 369.75 C 191.042969 369.75 191.578125 369.804688 192.109375 369.910156 C 192.640625 370.015625 193.15625 370.171875 193.65625 370.378906 C 194.15625 370.585938 194.632812 370.839844 195.082031 371.140625 C 195.535156 371.441406 195.949219 371.785156 196.332031 372.167969 C 196.714844 372.550781 197.058594 372.964844 197.359375 373.417969 C 197.660156 373.867188 197.914062 374.34375 198.121094 374.84375 C 198.328125 375.34375 198.484375 375.859375 198.589844 376.390625 C 198.695312 376.921875 198.75 377.457031 198.75 378 C 198.75 378.542969 198.695312 379.078125 198.589844 379.609375 C 198.484375 380.140625 198.328125 380.65625 198.121094 381.15625 C 197.914062 381.65625 197.660156 382.132812 197.359375 382.582031 C 197.058594 383.035156 196.714844 383.449219 196.332031 383.832031 C 195.949219 384.214844 195.535156 384.558594 195.082031 384.859375 C 194.632812 385.160156 194.15625 385.414062 193.65625 385.621094 C 193.15625 385.828125 192.640625 385.984375 192.109375 386.089844 C 191.578125 386.195312 191.042969 386.25 190.5 386.25 L 141 386.25 C 140.457031 386.25 139.921875 386.195312 139.390625 386.089844 C 138.859375 385.984375 138.34375 385.828125 137.84375 385.621094 C 137.34375 385.414062 136.867188 385.160156 136.417969 384.859375 C 135.964844 384.558594 135.550781 384.214844 135.167969 383.832031 C 134.785156 383.449219 134.441406 383.035156 134.140625 382.582031 C 133.839844 382.132812 133.585938 381.65625 133.378906 381.15625 C 133.171875 380.65625 133.015625 380.140625 132.910156 379.609375 C 132.804688 379.078125 132.75 378.542969 132.75 378 C 132.75 377.457031 132.804688 376.921875 132.910156 376.390625 C 133.015625 375.859375 133.171875 375.34375 133.378906 374.84375 C 133.585938 374.34375 133.839844 373.867188 134.140625 373.417969 C 134.441406 372.964844 134.785156 372.550781 135.167969 372.167969 C 135.550781 371.785156 135.964844 371.441406 136.417969 371.140625 C 136.867188 370.839844 137.34375 370.585938 137.84375 370.378906 C 138.34375 370.171875 138.859375 370.015625 139.390625 369.910156 C 139.921875 369.804688 140.457031 369.75 141 369.75 Z M 223.5 369.75 L 273 369.75 C 273.542969 369.75 274.078125 369.804688 274.609375 369.910156 C 275.140625 370.015625 275.65625 370.171875 276.15625 370.378906 C 276.65625 370.585938 277.132812 370.839844 277.582031 371.140625 C 278.035156 371.441406 278.449219 371.785156 278.832031 372.167969 C 279.214844 372.550781 279.558594 372.964844 279.859375 373.417969 C 280.160156 373.867188 280.414062 374.34375 280.621094 374.84375 C 280.828125 375.34375 280.984375 375.859375 281.089844 376.390625 C 281.195312 376.921875 281.25 377.457031 281.25 378 C 281.25 378.542969 281.195312 379.078125 281.089844 379.609375 C 280.984375 380.140625 280.828125 380.65625 280.621094 381.15625 C 280.414062 381.65625 280.160156 382.132812 279.859375 382.582031 C 279.558594 383.035156 279.214844 383.449219 278.832031 383.832031 C 278.449219 384.214844 278.035156 384.558594 277.582031 384.859375 C 277.132812 385.160156 276.65625 385.414062 276.15625 385.621094 C 275.65625 385.828125 275.140625 385.984375 274.609375 386.089844 C 274.078125 386.195312 273.542969 386.25 273 386.25 L 223.5 386.25 C 222.957031 386.25 222.421875 386.195312 221.890625 386.089844 C 221.359375 385.984375 220.84375 385.828125 220.34375 385.621094 C 219.84375 385.414062 219.367188 385.160156 218.917969 384.859375 C 218.464844 384.558594 218.050781 384.214844 217.667969 383.832031 C 217.285156 383.449219 216.941406 383.035156 216.640625 382.582031 C 216.339844 382.132812 216.085938 381.65625 215.878906 381.15625 C 215.671875 380.65625 215.515625 380.140625 215.410156 379.609375 C 215.304688 379.078125 215.25 378.542969 215.25 378 C 215.25 377.457031 215.304688 376.921875 215.410156 376.390625 C 215.515625 375.859375 215.671875 375.34375 215.878906 374.84375 C 216.085938 374.34375 216.339844 373.867188 216.640625 373.417969 C 216.941406 372.964844 217.285156 372.550781 217.667969 372.167969 C 218.050781 371.785156 218.464844 371.441406 218.917969 371.140625 C 219.367188 370.839844 219.84375 370.585938 220.34375 370.378906 C 220.84375 370.171875 221.359375 370.015625 221.890625 369.910156 C 222.421875 369.804688 222.957031 369.75 223.5 369.75 Z M 306 369.75 L 355.5 369.75 C 356.042969 369.75 356.578125 369.804688 357.109375 369.910156 C 357.640625 370.015625 358.15625 370.171875 358.65625 370.378906 C 359.15625 370.585938 359.632812 370.839844 360.082031 371.140625 C 360.535156 371.441406 360.949219 371.785156 361.332031 372.167969 C 361.714844 372.550781 362.058594 372.964844 362.359375 373.417969 C 362.660156 373.867188 362.914062 374.34375 363.121094 374.84375 C 363.328125 375.34375 363.484375 375.859375 363.589844 376.390625 C 363.695312 376.921875 363.75 377.457031 363.75 378 C 363.75 378.542969 363.695312 379.078125 363.589844 379.609375 C 363.484375 380.140625 363.328125 380.65625 363.121094 381.15625 C 362.914062 381.65625 362.660156 382.132812 362.359375 382.582031 C 362.058594 383.035156 361.714844 383.449219 361.332031 383.832031 C 360.949219 384.214844 360.535156 384.558594 360.082031 384.859375 C 359.632812 385.160156 359.15625 385.414062 358.65625 385.621094 C 358.15625 385.828125 357.640625 385.984375 357.109375 386.089844 C 356.578125 386.195312 356.042969 386.25 355.5 386.25 L 306 386.25 C 305.457031 386.25 304.921875 386.195312 304.390625 386.089844 C 303.859375 385.984375 303.34375 385.828125 302.84375 385.621094 C 302.34375 385.414062 301.867188 385.160156 301.417969 384.859375 C 300.964844 384.558594 300.550781 384.214844 300.167969 383.832031 C 299.785156 383.449219 299.441406 383.035156 299.140625 382.582031 C 298.839844 382.132812 298.585938 381.65625 298.378906 381.15625 C 298.171875 380.65625 298.015625 380.140625 297.910156 379.609375 C 297.804688 379.078125 297.75 378.542969 297.75 378 C 297.75 377.457031 297.804688 376.921875 297.910156 376.390625 C 298.015625 375.859375 298.171875 375.34375 298.378906 374.84375 C 298.585938 374.34375 298.839844 373.867188 299.140625 373.417969 C 299.441406 372.964844 299.785156 372.550781 300.167969 372.167969 C 300.550781 371.785156 300.964844 371.441406 301.417969 371.140625 C 301.867188 370.839844 302.34375 370.585938 302.84375 370.378906 C 303.34375 370.171875 303.859375 370.015625 304.390625 369.910156 C 304.921875 369.804688 305.457031 369.75 306 369.75 Z M 306 369.75 " fill-opacity="1" fill-rule="nonzero"/><path fill="rgb(94.509888%, 29.019165%, 10.978699%)" d="M 50.25 345 C 50.792969 345 51.328125 345.054688 51.859375 345.160156 C 52.390625 345.265625 52.90625 345.421875 53.40625 345.628906 C 53.90625 345.835938 54.382812 346.089844 54.832031 346.390625 C 55.285156 346.691406 55.699219 347.035156 56.082031 347.417969 C 56.464844 347.800781 56.808594 348.214844 57.109375 348.667969 C 57.410156 349.117188 57.664062 349.59375 57.871094 350.09375 C 58.078125 350.59375 58.234375 351.109375 58.339844 351.640625 C 58.445312 352.171875 58.5 352.707031 58.5 353.25 L 58.5 402.75 C 58.5 403.292969 58.445312 403.828125 58.339844 404.359375 C 58.234375 404.890625 58.078125 405.40625 57.871094 405.90625 C 57.664062 406.40625 57.410156 406.882812 57.109375 407.332031 C 56.808594 407.785156 56.464844 408.199219 56.082031 408.582031 C 55.699219 408.964844 55.285156 409.308594 54.832031 409.609375 C 54.382812 409.910156 53.90625 410.164062 53.40625 410.371094 C 52.90625 410.578125 52.390625 410.734375 51.859375 410.839844 C 51.328125 410.945312 50.792969 411 50.25 411 C 49.707031 411 49.171875 410.945312 48.640625 410.839844 C 48.109375 410.734375 47.59375 410.578125 47.09375 410.371094 C 46.59375 410.164062 46.117188 409.910156 45.667969 409.609375 C 45.214844 409.308594 44.800781 408.964844 44.417969 408.582031 C 44.035156 408.199219 43.691406 407.785156 43.390625 407.332031 C 43.089844 406.882812 42.835938 406.40625 42.628906 405.90625 C 42.421875 405.40625 42.265625 404.890625 42.160156 404.359375 C 42.054688 403.828125 42 403.292969 42 402.75 L 42 353.25 C 42 352.707031 42.054688 352.171875 42.160156 351.640625 C 42.265625 351.109375 42.421875 350.59375 42.628906 350.09375 C 42.835938 349.59375 43.089844 349.117188 43.390625 348.667969 C 43.691406 348.214844 44.035156 347.800781 44.417969 347.417969 C 44.800781 347.035156 45.214844 346.691406 45.667969 346.390625 C 46.117188 346.089844 46.59375 345.835938 47.09375 345.628906 C 47.59375 345.421875 48.109375 345.265625 48.640625 345.160156 C 49.171875 345.054688 49.707031 345 50.25 345 Z M 50.25 345 " fill-opacity="1" fill-rule="nonzero"/><path fill="rgb(94.509888%, 29.019165%, 10.978699%)" d="M 369.75 345 C 370.292969 345 370.828125 345.054688 371.359375 345.160156 C 371.890625 345.265625 372.40625 345.421875 372.90625 345.628906 C 373.40625 345.835938 373.882812 346.089844 374.332031 346.390625 C 374.785156 346.691406 375.199219 347.035156 375.582031 347.417969 C 375.964844 347.800781 376.308594 348.214844 376.609375 348.667969 C 376.910156 349.117188 377.164062 349.59375 377.371094 350.09375 C 377.578125 350.59375 377.734375 351.109375 377.839844 351.640625 C 377.945312 352.171875 378 352.707031 378 353.25 L 378 402.75 C 378 403.292969 377.945312 403.828125 377.839844 404.359375 C 377.734375 404.890625 377.578125 405.40625 377.371094 405.90625 C 377.164062 406.40625 376.910156 406.882812 376.609375 407.332031 C 376.308594 407.785156 375.964844 408.199219 375.582031 408.582031 C 375.199219 408.964844 374.785156 409.308594 374.332031 409.609375 C 373.882812 409.910156 373.40625 410.164062 372.90625 410.371094 C 372.40625 410.578125 371.890625 410.734375 371.359375 410.839844 C 370.828125 410.945312 370.292969 411 369.75 411 C 369.207031 411 368.671875 410.945312 368.140625 410.839844 C 367.609375 410.734375 367.09375 410.578125 366.59375 410.371094 C 366.09375 410.164062 365.617188 409.910156 365.167969 409.609375 C 364.714844 409.308594 364.300781 408.964844 363.917969 408.582031 C 363.535156 408.199219 363.191406 407.785156 362.890625 407.332031 C 362.589844 406.882812 362.335938 406.40625 362.128906 405.90625 C 361.921875 405.40625 361.765625 404.890625 361.660156 404.359375 C 361.554688 403.828125 361.5 403.292969 361.5 402.75 L 361.5 353.25 C 361.5 352.707031 361.554688 352.171875 361.660156 351.640625 C 361.765625 351.109375 361.921875 350.59375 362.128906 350.09375 C 362.335938 349.59375 362.589844 349.117188 362.890625 348.667969 C 363.191406 348.214844 363.535156 347.800781 363.917969 347.417969 C 364.300781 347.035156 364.714844 346.691406 365.167969 346.390625 C 365.617188 346.089844 366.09375 345.835938 366.59375 345.628906 C 367.09375 345.421875 367.609375 345.265625 368.140625 345.160156 C 368.671875 345.054688 369.207031 345 369.75 345 Z M 369.75 345 " fill-opacity="1" fill-rule="nonzero"/><path fill="rgb(94.509888%, 29.019165%, 10.978699%)" d="M 58.5 218.226562 L 108 218.226562 C 108.542969 218.226562 109.078125 218.277344 109.609375 218.382812 C 110.140625 218.488281 110.65625 218.644531 111.15625 218.851562 C 111.65625 219.058594 112.132812 219.3125 112.582031 219.613281 C 113.035156 219.914062 113.449219 220.257812 113.832031 220.640625 C 114.214844 221.023438 114.558594 221.441406 114.859375 221.890625 C 115.160156 222.339844 115.414062 222.816406 115.621094 223.316406 C 115.828125 223.816406 115.984375 224.332031 116.089844 224.863281 C 116.195312 225.394531 116.25 225.933594 116.25 226.476562 C 116.25 227.015625 116.195312 227.554688 116.089844 228.085938 C 115.984375 228.617188 115.828125 229.132812 115.621094 229.632812 C 115.414062 230.132812 115.160156 230.609375 114.859375 231.058594 C 114.558594 231.507812 114.214844 231.925781 113.832031 232.308594 C 113.449219 232.691406 113.035156 233.035156 112.582031 233.335938 C 112.132812 233.636719 111.65625 233.890625 111.15625 234.097656 C 110.65625 234.304688 110.140625 234.460938 109.609375 234.566406 C 109.078125 234.671875 108.542969 234.726562 108 234.726562 L 58.5 234.726562 C 57.957031 234.726562 57.421875 234.671875 56.890625 234.566406 C 56.359375 234.460938 55.84375 234.304688 55.34375 234.097656 C 54.84375 233.890625 54.367188 233.636719 53.917969 233.335938 C 53.464844 233.035156 53.050781 232.691406 52.667969 232.308594 C 52.285156 231.925781 51.941406 231.507812 51.640625 231.058594 C 51.339844 230.609375 51.085938 230.132812 50.878906 229.632812 C 50.671875 229.132812 50.515625 228.617188 50.410156 228.085938 C 50.304688 227.554688 50.25 227.015625 50.25 226.476562 C 50.25 225.933594 50.304688 225.394531 50.410156 224.863281 C 50.515625 224.332031 50.671875 223.816406 50.878906 223.316406 C 51.085938 222.816406 51.339844 222.339844 51.640625 221.890625 C 51.941406 221.441406 52.285156 221.023438 52.667969 220.640625 C 53.050781 220.257812 53.464844 219.914062 53.917969 219.613281 C 54.367188 219.3125 54.84375 219.058594 55.34375 218.851562 C 55.84375 218.644531 56.359375 218.488281 56.890625 218.382812 C 57.421875 218.277344 57.957031 218.226562 58.5 218.226562 Z M 141 218.226562 L 190.5 218.226562 C 191.042969 218.226562 191.578125 218.277344 192.109375 218.382812 C 192.640625 218.488281 193.15625 218.644531 193.65625 218.851562 C 194.15625 219.058594 194.632812 219.3125 195.082031 219.613281 C 195.535156 219.914062 195.949219 220.257812 196.332031 220.640625 C 196.714844 221.023438 197.058594 221.441406 197.359375 221.890625 C 197.660156 222.339844 197.914062 222.816406 198.121094 223.316406 C 198.328125 223.816406 198.484375 224.332031 198.589844 224.863281 C 198.695312 225.394531 198.75 225.933594 198.75 226.476562 C 198.75 227.015625 198.695312 227.554688 198.589844 228.085938 C 198.484375 228.617188 198.328125 229.132812 198.121094 229.632812 C 197.914062 230.132812 197.660156 230.609375 197.359375 231.058594 C 197.058594 231.507812 196.714844 231.925781 196.332031 232.308594 C 195.949219 232.691406 195.535156 233.035156 195.082031 233.335938 C 194.632812 233.636719 194.15625 233.890625 193.65625 234.097656 C 193.15625 234.304688 192.640625 234.460938 192.109375 234.566406 C 191.578125 234.671875 191.042969 234.726562 190.5 234.726562 L 141 234.726562 C 140.457031 234.726562 139.921875 234.671875 139.390625 234.566406 C 138.859375 234.460938 138.34375 234.304688 137.84375 234.097656 C 137.34375 233.890625 136.867188 233.636719 136.417969 233.335938 C 135.964844 233.035156 135.550781 232.691406 135.167969 232.308594 C 134.785156 231.925781 134.441406 231.507812 134.140625 231.058594 C 133.839844 230.609375 133.585938 230.132812 133.378906 229.632812 C 133.171875 229.132812 133.015625 228.617188 132.910156 228.085938 C 132.804688 227.554688 132.75 227.015625 132.75 226.476562 C 132.75 225.933594 132.804688 225.394531 132.910156 224.863281 C 133.015625 224.332031 133.171875 223.816406 133.378906 223.316406 C 133.585938 222.816406 133.839844 222.339844 134.140625 221.890625 C 134.441406 221.441406 134.785156 221.023438 135.167969 220.640625 C 135.550781 220.257812 135.964844 219.914062 136.417969 219.613281 C 136.867188 219.3125 137.34375 219.058594 137.84375 218.851562 C 138.34375 218.644531 138.859375 218.488281 139.390625 218.382812 C 139.921875 218.277344 140.457031 218.226562 141 218.226562 Z M 223.5 218.226562 L 273 218.226562 C 273.542969 218.226562 274.078125 218.277344 274.609375 218.382812 C 275.140625 218.488281 275.65625 218.644531 276.15625 218.851562 C 276.65625 219.058594 277.132812 219.3125 277.582031 219.613281 C 278.035156 219.914062 278.449219 220.257812 278.832031 220.640625 C 279.214844 221.023438 279.558594 221.441406 279.859375 221.890625 C 280.160156 222.339844 280.414062 222.816406 280.621094 223.316406 C 280.828125 223.816406 280.984375 224.332031 281.089844 224.863281 C 281.195312 225.394531 281.25 225.933594 281.25 226.476562 C 281.25 227.015625 281.195312 227.554688 281.089844 228.085938 C 280.984375 228.617188 280.828125 229.132812 280.621094 229.632812 C 280.414062 230.132812 280.160156 230.609375 279.859375 231.058594 C 279.558594 231.507812 279.214844 231.925781 278.832031 232.308594 C 278.449219 232.691406 278.035156 233.035156 277.582031 233.335938 C 277.132812 233.636719 276.65625 233.890625 276.15625 234.097656 C 275.65625 234.304688 275.140625 234.460938 274.609375 234.566406 C 274.078125 234.671875 273.542969 234.726562 273 234.726562 L 223.5 234.726562 C 222.957031 234.726562 222.421875 234.671875 221.890625 234.566406 C 221.359375 234.460938 220.84375 234.304688 220.34375 234.097656 C 219.84375 233.890625 219.367188 233.636719 218.917969 233.335938 C 218.464844 233.035156 218.050781 232.691406 217.667969 232.308594 C 217.285156 231.925781 216.941406 231.507812 216.640625 231.058594 C 216.339844 230.609375 216.085938 230.132812 215.878906 229.632812 C 215.671875 229.132812 215.515625 228.617188 215.410156 228.085938 C 215.304688 227.554688 215.25 227.015625 215.25 226.476562 C 215.25 225.933594 215.304688 225.394531 215.410156 224.863281 C 215.515625 224.332031 215.671875 223.816406 215.878906 223.316406 C 216.085938 222.816406 216.339844 222.339844 216.640625 221.890625 C 216.941406 221.441406 217.285156 221.023438 217.667969 220.640625 C 218.050781 220.257812 218.464844 219.914062 218.917969 219.613281 C 219.367188 219.3125 219.84375 219.058594 220.34375 218.851562 C 220.84375 218.644531 221.359375 218.488281 221.890625 218.382812 C 222.421875 218.277344 222.957031 218.226562 223.5 218.226562 Z M 306 218.226562 L 355.5 218.226562 C 356.042969 218.226562 356.578125 218.277344 357.109375 218.382812 C 357.640625 218.488281 358.15625 218.644531 358.65625 218.851562 C 359.15625 219.058594 359.632812 219.3125 360.082031 219.613281 C 360.535156 219.914062 360.949219 220.257812 361.332031 220.640625 C 361.714844 221.023438 362.058594 221.441406 362.359375 221.890625 C 362.660156 222.339844 362.914062 222.816406 363.121094 223.316406 C 363.328125 223.816406 363.484375 224.332031 363.589844 224.863281 C 363.695312 225.394531 363.75 225.933594 363.75 226.476562 C 363.75 227.015625 363.695312 227.554688 363.589844 228.085938 C 363.484375 228.617188 363.328125 229.132812 363.121094 229.632812 C 362.914062 230.132812 362.660156 230.609375 362.359375 231.058594 C 362.058594 231.507812 361.714844 231.925781 361.332031 232.308594 C 360.949219 232.691406 360.535156 233.035156 360.082031 233.335938 C 359.632812 233.636719 359.15625 233.890625 358.65625 234.097656 C 358.15625 234.304688 357.640625 234.460938 357.109375 234.566406 C 356.578125 234.671875 356.042969 234.726562 355.5 234.726562 L 306 234.726562 C 305.457031 234.726562 304.921875 234.671875 304.390625 234.566406 C 303.859375 234.460938 303.34375 234.304688 302.84375 234.097656 C 302.34375 233.890625 301.867188 233.636719 301.417969 233.335938 C 300.964844 233.035156 300.550781 232.691406 300.167969 232.308594 C 299.785156 231.925781 299.441406 231.507812 299.140625 231.058594 C 298.839844 230.609375 298.585938 230.132812 298.378906 229.632812 C 298.171875 229.132812 298.015625 228.617188 297.910156 228.085938 C 297.804688 227.554688 297.75 227.015625 297.75 226.476562 C 297.75 225.933594 297.804688 225.394531 297.910156 224.863281 C 298.015625 224.332031 298.171875 223.816406 298.378906 223.316406 C 298.585938 222.816406 298.839844 222.339844 299.140625 221.890625 C 299.441406 221.441406 299.785156 221.023438 300.167969 220.640625 C 300.550781 220.257812 300.964844 219.914062 301.417969 219.613281 C 301.867188 219.3125 302.34375 219.058594 302.84375 218.851562 C 303.34375 218.644531 303.859375 218.488281 304.390625 218.382812 C 304.921875 218.277344 305.457031 218.226562 306 218.226562 Z M 306 218.226562 " fill-opacity="1" fill-rule="nonzero"/><path fill="rgb(94.509888%, 29.019165%, 10.978699%)" d="M 50.25 193.476562 C 50.792969 193.476562 51.328125 193.527344 51.859375 193.632812 C 52.390625 193.738281 52.90625 193.894531 53.40625 194.101562 C 53.90625 194.308594 54.382812 194.5625 54.832031 194.863281 C 55.285156 195.167969 55.699219 195.507812 56.082031 195.890625 C 56.464844 196.273438 56.808594 196.691406 57.109375 197.140625 C 57.410156 197.589844 57.664062 198.066406 57.871094 198.566406 C 58.078125 199.066406 58.234375 199.582031 58.339844 200.113281 C 58.445312 200.648438 58.5 201.183594 58.5 201.726562 L 58.5 251.226562 C 58.5 251.765625 58.445312 252.304688 58.339844 252.835938 C 58.234375 253.367188 58.078125 253.882812 57.871094 254.382812 C 57.664062 254.882812 57.410156 255.359375 57.109375 255.808594 C 56.808594 256.257812 56.464844 256.675781 56.082031 257.058594 C 55.699219 257.441406 55.285156 257.785156 54.832031 258.085938 C 54.382812 258.386719 53.90625 258.640625 53.40625 258.847656 C 52.90625 259.054688 52.390625 259.210938 51.859375 259.316406 C 51.328125 259.421875 50.792969 259.476562 50.25 259.476562 C 49.707031 259.476562 49.171875 259.421875 48.640625 259.316406 C 48.109375 259.210938 47.59375 259.054688 47.09375 258.847656 C 46.59375 258.640625 46.117188 258.386719 45.667969 258.085938 C 45.214844 257.785156 44.800781 257.441406 44.417969 257.058594 C 44.035156 256.675781 43.691406 256.257812 43.390625 255.808594 C 43.089844 255.359375 42.835938 254.882812 42.628906 254.382812 C 42.421875 253.882812 42.265625 253.367188 42.160156 252.835938 C 42.054688 252.304688 42 251.765625 42 251.226562 L 42 201.726562 C 42 201.183594 42.054688 200.648438 42.160156 200.113281 C 42.265625 199.582031 42.421875 199.066406 42.628906 198.566406 C 42.835938 198.066406 43.089844 197.589844 43.390625 197.140625 C 43.691406 196.691406 44.035156 196.273438 44.417969 195.890625 C 44.800781 195.507812 45.214844 195.167969 45.667969 194.863281 C 46.117188 194.5625 46.59375 194.308594 47.09375 194.101562 C 47.59375 193.894531 48.109375 193.738281 48.640625 193.632812 C 49.171875 193.527344 49.707031 193.476562 50.25 193.476562 Z M 50.25 193.476562 " fill-opacity="1" fill-rule="nonzero"/><path fill="rgb(94.509888%, 29.019165%, 10.978699%)" d="M 369.75 193.476562 C 370.292969 193.476562 370.828125 193.527344 371.359375 193.632812 C 371.890625 193.738281 372.40625 193.894531 372.90625 194.101562 C 373.40625 194.308594 373.882812 194.5625 374.332031 194.863281 C 374.785156 195.167969 375.199219 195.507812 375.582031 195.890625 C 375.964844 196.273438 376.308594 196.691406 376.609375 197.140625 C 376.910156 197.589844 377.164062 198.066406 377.371094 198.566406 C 377.578125 199.066406 377.734375 199.582031 377.839844 200.113281 C 377.945312 200.648438 378 201.183594 378 201.726562 L 378 251.226562 C 378 251.765625 377.945312 252.304688 377.839844 252.835938 C 377.734375 253.367188 377.578125 253.882812 377.371094 254.382812 C 377.164062 254.882812 376.910156 255.359375 376.609375 255.808594 C 376.308594 256.257812 375.964844 256.675781 375.582031 257.058594 C 375.199219 257.441406 374.785156 257.785156 374.332031 258.085938 C 373.882812 258.386719 373.40625 258.640625 372.90625 258.847656 C 372.40625 259.054688 371.890625 259.210938 371.359375 259.316406 C 370.828125 259.421875 370.292969 259.476562 369.75 259.476562 C 369.207031 259.476562 368.671875 259.421875 368.140625 259.316406 C 367.609375 259.210938 367.09375 259.054688 366.59375 258.847656 C 366.09375 258.640625 365.617188 258.386719 365.167969 258.085938 C 364.714844 257.785156 364.300781 257.441406 363.917969 257.058594 C 363.535156 256.675781 363.191406 256.257812 362.890625 255.808594 C 362.589844 255.359375 362.335938 254.882812 362.128906 254.382812 C 361.921875 253.882812 361.765625 253.367188 361.660156 252.835938 C 361.554688 252.304688 361.5 251.765625 361.5 251.226562 L 361.5 201.726562 C 361.5 201.183594 361.554688 200.648438 361.660156 200.113281 C 361.765625 199.582031 361.921875 199.066406 362.128906 198.566406 C 362.335938 198.066406 362.589844 197.589844 362.890625 197.140625 C 363.191406 196.691406 363.535156 196.273438 363.917969 195.890625 C 364.300781 195.507812 364.714844 195.167969 365.167969 194.863281 C 365.617188 194.5625 366.09375 194.308594 366.59375 194.101562 C 367.09375 193.894531 367.609375 193.738281 368.140625 193.632812 C 368.671875 193.527344 369.207031 193.476562 369.75 193.476562 Z M 369.75 193.476562 " fill-opacity="1" fill-rule="nonzero"/></svg>